# File created by Blade
# Date/Time:  Thu Sep 25 18:48:06 2014
# Frame Rate: 120.000 fps
#------------------------------------------------------
:FULLY-SPECIFIED
:DEGREES
937
root 0.547833 32.843182 -3.490342 36.734562 2.555952 -0.380563
Spine 15.720404 6.833712 4.542031
Head -36.433166 -12.065047 0.098458
LeftShoulder -9.828941 24.203024 14.452928
LeftArm 5.695250 46.146774 -79.840186
LeftForeArm 2.375205 -0.000000 28.279190
LeftHand -19.428937 -0.000000 -27.511576
LeftHandThumb1 -26.253704 0.000000 33.147579
RightShoulder -16.838335 7.787719 -28.714467
RightArm -35.943119 -38.833393 110.022250
RightForeArm -19.203468 -0.000000 20.933483
RightHand -0.942025 -0.000000 41.492354
RightHandThumb1 -24.326973 -0.000000 -32.862282
LeftUpLeg -41.177214 9.621418 -1.725672
LeftLeg -0.658406 -0.000000 0.000000
LeftFoot -0.917115 3.026737 -12.289198
LeftToeBase 12.238857 -0.000000 -0.000000
RightUpLeg -41.513039 -10.574736 2.581072
RightLeg 2.879736 -0.000000 -0.000000
RightFoot -1.312151 -5.055555 4.067170
RightToeBase 1.265037 -0.000000 -0.000000
938
root 0.551749 32.844608 -3.411271 36.193209 2.607248 -0.342023
Spine 15.110361 6.708190 4.424484
Head -36.255407 -12.069159 -0.147993
LeftShoulder -9.921350 24.296015 14.288060
LeftArm 5.944032 46.203552 -79.811329
LeftForeArm 2.220103 -0.000000 28.381796
LeftHand -19.469204 -0.000000 -27.305421
LeftHandThumb1 -26.253704 0.000000 33.147579
RightShoulder -16.871497 7.636996 -28.576393
RightArm -35.770026 -38.872455 110.283463
RightForeArm -18.958319 0.000000 20.969222
RightHand -1.017329 -0.000000 41.055554
RightHandThumb1 -24.326973 -0.000000 -32.862282
LeftUpLeg -40.498446 9.551938 -1.589318
LeftLeg -0.611301 -0.000000 0.000000
LeftFoot -1.115724 3.024513 -12.347807
LeftToeBase 12.261619 -0.000000 -0.000000
RightUpLeg -40.855324 -10.678300 2.464848
RightLeg 2.972134 -0.000000 -0.000000
RightFoot -1.550621 -5.058351 4.098694
RightToeBase 1.287214 -0.000000 -0.000000
939
root 0.555135 32.848867 -3.332529 35.666696 2.547798 -0.312774
Spine 14.499604 6.687193 4.215144
Head -36.079999 -12.075442 -0.323169
LeftShoulder -9.957551 24.358150 14.146782
LeftArm 6.081215 45.991091 -79.884820
LeftForeArm 2.360594 -0.000000 28.460057
LeftHand -19.543139 -0.000000 -27.174689
LeftHandThumb1 -26.253704 0.000000 33.147579
RightShoulder -16.927742 7.583425 -28.414329
RightArm -35.755092 -39.006679 110.599773
RightForeArm -18.420113 -0.000000 21.122520
RightHand -1.107983 -0.000000 40.993418
RightHandThumb1 -24.326973 -0.000000 -32.862282
LeftUpLeg -39.886487 9.724707 -1.650441
LeftLeg -0.486373 -0.000000 0.000000
LeftFoot -1.272657 2.840232 -12.175393
LeftToeBase 12.127665 -0.000000 -0.000000
RightUpLeg -40.211443 -10.684660 2.294884
RightLeg 3.041874 -0.000000 -0.000000
RightFoot -1.736417 -5.063543 4.084118
RightToeBase 1.310826 -0.000000 -0.000000
940
root 0.561728 32.850812 -3.253722 35.075430 2.492221 -0.312245
Spine 14.001897 6.653190 4.043302
Head -35.929768 -11.985826 -0.434891
LeftShoulder -10.024731 24.317372 14.041142
LeftArm 6.131931 45.885265 -80.019079
LeftForeArm 2.357499 -0.000000 28.583505
LeftHand -19.613987 -0.000000 -26.963225
LeftHandThumb1 -26.253704 0.000000 33.147579
RightShoulder -16.968434 7.592147 -28.272560
RightArm -35.747746 -39.095098 110.909729
RightForeArm -18.101637 0.000000 21.259279
RightHand -1.203738 -0.000000 40.660766
RightHandThumb1 -24.326973 -0.000000 -32.862282
LeftUpLeg -39.165688 9.800626 -1.578966
LeftLeg -0.429628 -0.000000 0.000000
LeftFoot -1.550455 2.845445 -12.378098
LeftToeBase 12.377102 -0.000000 -0.000000
RightUpLeg -39.536793 -10.704233 2.153434
RightLeg 3.178623 -0.000000 -0.000000
RightFoot -1.942005 -5.036011 4.072334
RightToeBase 1.324831 -0.000000 -0.000000
941
root 0.565944 32.852445 -3.177298 34.551867 2.549746 -0.304247
Spine 13.377306 6.558221 3.983276
Head -35.633402 -11.978622 -0.678780
LeftShoulder -10.034246 24.384127 13.907743
LeftArm 6.309591 45.800277 -80.032643
LeftForeArm 2.239031 -0.000000 28.711591
LeftHand -19.733759 -0.000000 -26.828771
LeftHandThumb1 -26.253704 0.000000 33.147579
RightShoulder -17.025653 7.527526 -28.211785
RightArm -35.695927 -39.075108 111.199909
RightForeArm -18.072510 -0.000000 21.389643
RightHand -1.015191 -0.000000 40.431042
RightHandThumb1 -24.326973 -0.000000 -32.862282
LeftUpLeg -38.534369 9.774829 -1.439440
LeftLeg -0.343850 -0.000000 0.000000
LeftFoot -1.729095 2.763252 -12.341007
LeftToeBase 12.266994 -0.000000 -0.000000
RightUpLeg -38.900292 -10.807746 2.076197
RightLeg 3.258646 -0.000000 -0.000000
RightFoot -2.139056 -5.013322 4.055163
RightToeBase 1.312172 -0.000000 -0.000000
942
root 0.565786 32.857593 -3.105296 33.977644 2.554112 -0.278214
Spine 12.903205 6.450227 3.804475
Head -35.495859 -11.856898 -0.735024
LeftShoulder -10.121015 24.324646 13.832260
LeftArm 6.386393 45.652079 -80.133287
LeftForeArm 2.256273 -0.000000 28.890938
LeftHand -19.954963 -0.000000 -26.672762
LeftHandThumb1 -26.253704 0.000000 33.147579
RightShoulder -17.022929 7.511575 -28.094330
RightArm -35.596407 -39.045974 111.424172
RightForeArm -17.908907 -0.000000 21.615227
RightHand -1.099744 -0.000000 40.254020
RightHandThumb1 -24.326973 -0.000000 -32.862282
LeftUpLeg -37.907873 9.889517 -1.426520
LeftLeg -0.186039 -0.000000 0.000000
LeftFoot -1.896569 2.614723 -12.310659
LeftToeBase 12.245953 -0.000000 -0.000000
RightUpLeg -38.238438 -10.836295 1.923979
RightLeg 3.386837 -0.000000 -0.000000
RightFoot -2.313445 -5.079465 4.047174
RightToeBase 1.303942 -0.000000 -0.000000
943
root 0.572954 32.859649 -3.026222 33.400263 2.544522 -0.271902
Spine 12.402910 6.395083 3.697078
Head -35.317787 -11.835085 -0.856300
LeftShoulder -10.159286 24.318799 13.703210
LeftArm 6.468896 45.503608 -80.152174
LeftForeArm 2.380455 -0.000000 29.166745
LeftHand -20.019984 -0.000000 -26.440716
LeftHandThumb1 -26.253704 0.000000 33.147579
RightShoulder -17.093102 7.432525 -28.025468
RightArm -35.450725 -38.965311 111.565935
RightForeArm -17.985337 -0.000000 21.847766
RightHand -0.913203 0.000000 40.298485
RightHandThumb1 -24.326973 -0.000000 -32.862282
LeftUpLeg -37.199878 9.880602 -1.297731
LeftLeg -0.115491 -0.000000 0.000000
LeftFoot -2.111342 2.618833 -12.336673
LeftToeBase 12.271197 -0.000000 -0.000000
RightUpLeg -37.550014 -10.914876 1.816684
RightLeg 3.466488 -0.000000 -0.000000
RightFoot -2.500490 -5.021145 4.059991
RightToeBase 1.301461 -0.000000 -0.000000
944
root 0.577146 32.863065 -2.945437 32.886426 2.517416 -0.266593
Spine 11.827320 6.369365 3.535154
Head -35.079072 -11.710151 -0.992701
LeftShoulder -10.250172 24.331379 13.581209
LeftArm 6.596360 45.334743 -80.112361
LeftForeArm 2.472341 -0.000000 29.408114
LeftHand -20.085231 -0.000000 -26.289888
LeftHandThumb1 -26.253704 0.000000 33.147579
RightShoulder -17.157871 7.369951 -27.894878
RightArm -35.368354 -38.909460 111.718446
RightForeArm -18.012149 -0.000000 22.078529
RightHand -0.774957 -0.000000 40.021149
RightHandThumb1 -24.326973 -0.000000 -32.862282
LeftUpLeg -36.594223 10.000235 -1.275037
LeftLeg 0.004499 -0.000000 -0.000000
LeftFoot -2.310579 2.494831 -12.295203
LeftToeBase 12.256772 -0.000000 -0.000000
RightUpLeg -36.913525 -10.910117 1.669456
RightLeg 3.547614 -0.000000 -0.000000
RightFoot -2.680098 -5.036685 4.038398
RightToeBase 1.318953 -0.000000 -0.000000
945
root 0.584180 32.863604 -2.865011 32.319604 2.465116 -0.259373
Spine 11.329249 6.351718 3.374080
Head -34.876616 -11.604123 -1.078513
LeftShoulder -10.342766 24.420836 13.464660
LeftArm 6.900997 45.247054 -79.949466
LeftForeArm 2.393422 -0.000000 29.606935
LeftHand -20.095273 -0.000000 -26.169057
LeftHandThumb1 -26.253704 0.000000 33.147579
RightShoulder -17.232999 7.304867 -27.809695
RightArm -35.266983 -38.864427 111.866877
RightForeArm -17.985664 -0.000000 22.333516
RightHand -0.984826 -0.000000 39.600674
RightHandThumb1 -24.326973 -0.000000 -32.862282
LeftUpLeg -35.890147 10.057972 -1.192216
LeftLeg 0.058257 -0.000000 -0.000000
LeftFoot -2.524410 2.451938 -12.284421
LeftToeBase 12.289380 -0.000000 -0.000000
RightUpLeg -36.251623 -10.980336 1.557131
RightLeg 3.653950 -0.000000 -0.000000
RightFoot -2.874623 -4.923653 4.037662
RightToeBase 1.342439 -0.000000 -0.000000
946
root 0.592554 32.864542 -2.783355 31.767756 2.409815 -0.224597
Spine 10.817785 6.347847 3.176459
Head -34.673619 -11.559532 -1.127240
LeftShoulder -10.405172 24.453656 13.396743
LeftArm 7.142276 45.154231 -79.828618
LeftForeArm 2.190951 0.000000 29.746896
LeftHand -20.132287 -0.000000 -26.023077
LeftHandThumb1 -26.253704 0.000000 33.147579
RightShoulder -17.289346 7.221766 -27.688693
RightArm -35.116467 -38.740963 111.902201
RightForeArm -17.733072 0.000000 22.579535
RightHand -0.776971 -0.000000 39.314648
RightHandThumb1 -24.326973 -0.000000 -32.862282
LeftUpLeg -35.184951 10.040714 -1.103284
LeftLeg 0.101808 -0.000000 -0.000000
LeftFoot -2.725340 2.496719 -12.302955
LeftToeBase 12.199623 -0.000000 -0.000000
RightUpLeg -35.574032 -10.935541 1.335005
RightLeg 3.741518 -0.000000 -0.000000
RightFoot -3.098650 -4.975093 4.068777
RightToeBase 1.427627 -0.000000 -0.000000
947
root 0.593342 32.866390 -2.701754 31.231071 2.406793 -0.233190
Spine 10.301248 6.338147 3.055534
Head -34.497787 -11.468746 -1.181600
LeftShoulder -10.471360 24.431872 13.298901
LeftArm 7.364815 45.145116 -79.670103
LeftForeArm 1.869550 0.000000 29.857738
LeftHand -20.218590 -0.000000 -25.713023
LeftHandThumb1 -26.253704 0.000000 33.147579
RightShoulder -17.429636 7.151466 -27.594020
RightArm -35.025129 -38.852190 112.106754
RightForeArm -17.464419 -0.000000 22.700152
RightHand -0.545781 -0.000000 39.146338
RightHandThumb1 -24.326973 -0.000000 -32.862282
LeftUpLeg -34.561159 10.156918 -1.046829
LeftLeg 0.227694 -0.000000 -0.000000
LeftFoot -2.933011 2.393487 -12.224505
LeftToeBase 12.203436 -0.000000 -0.000000
RightUpLeg -34.925769 -11.000483 1.258294
RightLeg 3.826722 -0.000000 -0.000000
RightFoot -3.266774 -4.926927 4.014562
RightToeBase 1.357215 -0.000000 -0.000000
948
root 0.600341 32.867183 -2.620545 30.706785 2.410422 -0.208412
Spine 9.772775 6.278728 2.908503
Head -34.267609 -11.351336 -1.272127
LeftShoulder -10.535583 24.425114 13.217415
LeftArm 7.537347 45.050857 -79.590104
LeftForeArm 1.707820 -0.000000 29.951601
LeftHand -20.080978 -0.000000 -25.801620
LeftHandThumb1 -26.253704 0.000000 33.147579
RightShoulder -17.510092 7.103123 -27.469495
RightArm -34.915161 -38.842376 112.186809
RightForeArm -17.380871 -0.000000 22.868425
RightHand -0.414245 -0.000000 38.934429
RightHandThumb1 -24.326973 -0.000000 -32.862282
LeftUpLeg -33.884727 10.109167 -0.925767
LeftLeg 0.258264 -0.000000 -0.000000
LeftFoot -3.121546 2.420482 -12.228614
LeftToeBase 12.196910 -0.000000 -0.000000
RightUpLeg -34.280379 -11.079613 1.137838
RightLeg 3.894345 -0.000000 -0.000000
RightFoot -3.461132 -4.905302 4.005327
RightToeBase 1.320632 -0.000000 -0.000000
949
root 0.604766 32.867747 -2.538738 30.198866 2.441582 -0.180168
Spine 9.225455 6.179356 2.769114
Head -34.039872 -11.211019 -1.366381
LeftShoulder -10.606970 24.425521 13.130450
LeftArm 7.679786 44.897663 -79.509901
LeftForeArm 1.439757 -0.000000 30.036476
LeftHand -20.061489 -0.000000 -25.589802
LeftHandThumb1 -26.253704 0.000000 33.147579
RightShoulder -17.582495 7.009297 -27.357263
RightArm -34.754935 -38.962616 112.305396
RightForeArm -17.115712 -0.000000 22.921804
RightHand -0.248646 -0.000000 38.647422
RightHandThumb1 -24.326973 -0.000000 -32.862282
LeftUpLeg -33.244291 10.078952 -0.831976
LeftLeg 0.311590 -0.000000 -0.000000
LeftFoot -3.315147 2.432576 -12.181814
LeftToeBase 12.203331 -0.000000 -0.000000
RightUpLeg -33.636818 -11.160172 1.029188
RightLeg 3.944156 -0.000000 -0.000000
RightFoot -3.631363 -4.916065 3.929613
RightToeBase 1.401750 -0.000000 -0.000000
